<mxfile host="app.diagrams.net" modified="2024-01-19T01:30:42.167Z" agent="Mozilla/5.0 (Macintosh; Intel Mac OS X 10_15_7) AppleWebKit/537.36 (KHTML, like Gecko) Chrome/120.0.0.0 Safari/537.36" version="22.1.21" etag="2aqCx0VOawiggE7PKMeZ" type="github">
  <diagram name="Page-1" id="Hcw4UYvVS3bmZ5iQPETo">
    <mxGraphModel>
      <root>
        <mxCell id="0" />
        <mxCell id="1" parent="0" />
      </root>
    </mxGraphModel>
  </diagram>
</mxfile>
